ffmpeg started on 2025-06-03 at 19:40:26
Report written to "D:\Convert\FFMetrics\reports\psnr_report-6.txt"
Log level: 32
Command line:
ffmpeg -hide_banner -nostdin -i "G:\\\xc0\xed\xe8\xec\xe5\\\xce\xed\xe3\xee\xe8\xed\xe3\xe8\\!_36_\xce\xf1\xe5\xed\xfc_2024\\DreamCast\\\xc1\xe0\xf8\xed\xff \xc1\xee\xe3\xe0\\\xd2\xc2-2\\[DC] Kami no Tou - Ouji no Kikan - 10_Telegram_HEVC.mkv" -i "G:\\\xc0\xed\xe8\xec\xe5\\\xce\xed\xe3\xee\xe8\xed\xe3\xe8\\!_36_\xce\xf1\xe5\xed\xfc_2024\\DreamCast\\\xc1\xe0\xf8\xed\xff \xc1\xee\xe3\xe0\\\xd2\xc2-2\\[DC] Kami no Tou - Ouji no Kikan - 10_Telegram.mp4" -lavfi "[0:v]settb=AVTB,setpts=PTS-STARTPTS,format=pix_fmts=yuv420p10,fps=24000/1001,scale=1920:1080:flags=bicubic[main];[1:v]settb=AVTB,setpts=PTS-STARTPTS,format=pix_fmts=yuv420p,fps=24000/1001,scale=1920:1080:flags=bicubic[ref];[main][ref]psnr=eof_action=endall:stats_file='D\\:/Convert/FFMetrics/logs/psnr_logfile-6.txt'" -f null -
Input #0, matroska,webm, from 'G:\Аниме\Онгоинги\!_36_Осень_2024\DreamCast\Башня Бога\ТВ-2\[DC] Kami no Tou - Ouji no Kikan - 10_Telegram_HEVC.mkv':
  Metadata:
    COMPATIBLE_BRANDS: isomiso2avc1mp41
    MAJOR_BRAND     : isom
    MINOR_VERSION   : 512
    ENCODER         : Lavf61.7.100
  Duration: 00:23:47.93, start: -0.021000, bitrate: 1215 kb/s
  Stream #0:0: Video: hevc (Main 10), yuv420p10le(tv, bt709, progressive), 1920x1080 [SAR 1:1 DAR 16:9], 23.98 fps, 23.98 tbr, 1k tbn (default)
      Metadata:
        HANDLER_NAME    : VideoHandler
        VENDOR_ID       : [0][0][0][0]
        ENCODER         : Lavc61.19.100 libx265
        BPS             : 1017659
        DURATION        : 00:23:47.550708333
        NUMBER_OF_FRAMES: 34227
        NUMBER_OF_BYTES : 181595060
        _STATISTICS_WRITING_APP: mkvpropedit v66.0.0 ('Josie') 64-bit
        _STATISTICS_WRITING_DATE_UTC: 2025-05-29 17:26:46
        _STATISTICS_TAGS: BPS DURATION NUMBER_OF_FRAMES NUMBER_OF_BYTES
  Stream #0:1: Audio: aac (LC), 48000 Hz, stereo, fltp (default)
      Metadata:
        HANDLER_NAME    : SoundHandler
        VENDOR_ID       : [0][0][0][0]
        ENCODER         : Lavc61.19.100 aac
        BPS             : 193703
        DURATION        : 00:23:47.925000000
        NUMBER_OF_FRAMES: 66935
        NUMBER_OF_BYTES : 34574280
        _STATISTICS_WRITING_APP: mkvpropedit v66.0.0 ('Josie') 64-bit
        _STATISTICS_WRITING_DATE_UTC: 2025-05-29 17:26:46
        _STATISTICS_TAGS: BPS DURATION NUMBER_OF_FRAMES NUMBER_OF_BYTES
Input #1, mov,mp4,m4a,3gp,3g2,mj2, from 'G:\Аниме\Онгоинги\!_36_Осень_2024\DreamCast\Башня Бога\ТВ-2\[DC] Kami no Tou - Ouji no Kikan - 10_Telegram.mp4':
  Metadata:
    major_brand     : isom
    minor_version   : 512
    compatible_brands: isomiso2avc1mp41
    encoder         : Lavf61.1.100
  Duration: 00:23:47.89, start: 0.000000, bitrate: 3658 kb/s
  Stream #1:0[0x1](und): Video: h264 (High) (avc1 / 0x31637661), yuv420p(tv, bt709, progressive), 1920x1080 [SAR 1:1 DAR 16:9], 3511 kb/s, 23.98 fps, 23.98 tbr, 24k tbn (default)
      Metadata:
        handler_name    : VideoHandler
        vendor_id       : [0][0][0][0]
        encoder         : Lavc61.3.100 h264_qsv
  Stream #1:1[0x2](und): Audio: aac (HE-AACv2) (mp4a / 0x6134706D), 48000 Hz, stereo, fltp, 144 kb/s (default)
      Metadata:
        handler_name    : SoundHandler
        vendor_id       : [0][0][0][0]
Stream mapping:
  Stream #0:0 (hevc) -> settb:default
  Stream #1:0 (h264) -> settb:default
  psnr:default -> Stream #0:0 (wrapped_avframe)
  Stream #0:1 -> #0:1 (aac (native) -> pcm_s16le (native))
Output #0, null, to 'pipe:':
  Metadata:
    COMPATIBLE_BRANDS: isomiso2avc1mp41
    MAJOR_BRAND     : isom
    MINOR_VERSION   : 512
    encoder         : Lavf61.7.100
  Stream #0:0: Video: wrapped_avframe, yuv420p10le(tv, bt709, progressive), 1920x1080 [SAR 1:1 DAR 16:9], q=2-31, 200 kb/s, 23.98 fps, 23.98 tbn
      Metadata:
        encoder         : Lavc61.19.100 wrapped_avframe
  Stream #0:1: Audio: pcm_s16le, 48000 Hz, stereo, s16, 1536 kb/s (default)
      Metadata:
        HANDLER_NAME    : SoundHandler
        VENDOR_ID       : [0][0][0][0]
        _STATISTICS_TAGS: BPS DURATION NUMBER_OF_FRAMES NUMBER_OF_BYTES
        BPS             : 193703
        DURATION        : 00:23:47.925000000
        NUMBER_OF_FRAMES: 66935
        NUMBER_OF_BYTES : 34574280
        _STATISTICS_WRITING_APP: mkvpropedit v66.0.0 ('Josie') 64-bit
        _STATISTICS_WRITING_DATE_UTC: 2025-05-29 17:26:46
        encoder         : Lavc61.19.100 pcm_s16le
frame=  176 fps=0.0 q=-0.0 size=N/A time=00:00:07.34 bitrate=N/A speed=14.1x    frame=  462 fps=443 q=-0.0 size=N/A time=00:00:19.26 bitrate=N/A speed=18.5x    frame=  732 fps=472 q=-0.0 size=N/A time=00:00:30.53 bitrate=N/A speed=19.7x    frame= 1016 fps=490 q=-0.0 size=N/A time=00:00:42.37 bitrate=N/A speed=20.4x    frame= 1281 fps=496 q=-0.0 size=N/A time=00:00:53.42 bitrate=N/A speed=20.7x    frame= 1476 fps=475 q=-0.0 size=N/A time=00:01:01.56 bitrate=N/A speed=19.8x    frame= 1611 fps=446 q=-0.0 size=N/A time=00:01:07.19 bitrate=N/A speed=18.6x    frame= 1768 fps=428 q=-0.0 size=N/A time=00:01:13.74 bitrate=N/A speed=17.8x    frame= 1904 fps=410 q=-0.0 size=N/A time=00:01:19.41 bitrate=N/A speed=17.1x    frame= 2041 fps=395 q=-0.0 size=N/A time=00:01:25.12 bitrate=N/A speed=16.5x    frame= 2163 fps=381 q=-0.0 size=N/A time=00:01:30.21 bitrate=N/A speed=15.9x    frame= 2304 fps=372 q=-0.0 size=N/A time=00:01:36.09 bitrate=N/A speed=15.5x    frame= 2464 fps=367 q=-0.0 size=N/A time=00:01:42.76 bitrate=N/A speed=15.3x    frame= 2646 fps=366 q=-0.0 size=N/A time=00:01:50.36 bitrate=N/A speed=15.3x    frame= 2800 fps=362 q=-0.0 size=N/A time=00:01:56.78 bitrate=N/A speed=15.1x    frame= 2925 fps=354 q=-0.0 size=N/A time=00:02:01.99 bitrate=N/A speed=14.8x    frame= 3038 fps=347 q=-0.0 size=N/A time=00:02:06.70 bitrate=N/A speed=14.5x    frame= 3148 fps=339 q=-0.0 size=N/A time=00:02:11.29 bitrate=N/A speed=14.1x    frame= 3281 fps=334 q=-0.0 size=N/A time=00:02:16.84 bitrate=N/A speed=13.9x    frame= 3425 fps=332 q=-0.0 size=N/A time=00:02:22.85 bitrate=N/A speed=13.8x    frame= 3616 fps=333 q=-0.0 size=N/A time=00:02:30.81 bitrate=N/A speed=13.9x    frame= 3874 fps=341 q=-0.0 size=N/A time=00:02:41.57 bitrate=N/A speed=14.2x    frame= 4143 fps=349 q=-0.0 size=N/A time=00:02:52.79 bitrate=N/A speed=14.5x    frame= 4420 fps=357 q=-0.0 size=N/A time=00:03:04.35 bitrate=N/A speed=14.9x    frame= 4696 fps=364 q=-0.0 size=N/A time=00:03:15.86 bitrate=N/A speed=15.2x    frame= 4972 fps=370 q=-0.0 size=N/A time=00:03:27.37 bitrate=N/A speed=15.5x    frame= 5240 fps=376 q=-0.0 size=N/A time=00:03:38.55 bitrate=N/A speed=15.7x    frame= 5516 fps=382 q=-0.0 size=N/A time=00:03:50.06 bitrate=N/A speed=15.9x    frame= 5792 fps=387 q=-0.0 size=N/A time=00:04:01.57 bitrate=N/A speed=16.1x    frame= 6069 fps=392 q=-0.0 size=N/A time=00:04:13.12 bitrate=N/A speed=16.3x    frame= 6353 fps=397 q=-0.0 size=N/A time=00:04:24.97 bitrate=N/A speed=16.6x    frame= 6607 fps=400 q=-0.0 size=N/A time=00:04:35.56 bitrate=N/A speed=16.7x    frame= 6871 fps=403 q=-0.0 size=N/A time=00:04:46.61 bitrate=N/A speed=16.8x    frame= 7132 fps=406 q=-0.0 size=N/A time=00:04:57.46 bitrate=N/A speed=16.9x    frame= 7388 fps=409 q=-0.0 size=N/A time=00:05:08.14 bitrate=N/A speed=17.1x    frame= 7636 fps=411 q=-0.0 size=N/A time=00:05:18.48 bitrate=N/A speed=17.1x    frame= 7889 fps=413 q=-0.0 size=N/A time=00:05:29.03 bitrate=N/A speed=17.2x    frame= 8149 fps=415 q=-0.0 size=N/A time=00:05:39.88 bitrate=N/A speed=17.3x    frame= 8393 fps=417 q=-0.0 size=N/A time=00:05:50.05 bitrate=N/A speed=17.4x    frame= 8643 fps=419 q=-0.0 size=N/A time=00:06:00.48 bitrate=N/A speed=17.5x    frame= 8909 fps=421 q=-0.0 size=N/A time=00:06:11.57 bitrate=N/A speed=17.6x    frame= 9174 fps=423 q=-0.0 size=N/A time=00:06:22.63 bitrate=N/A speed=17.6x    frame= 9418 fps=424 q=-0.0 size=N/A time=00:06:32.80 bitrate=N/A speed=17.7x    frame= 9674 fps=426 q=-0.0 size=N/A time=00:06:43.48 bitrate=N/A speed=17.8x    frame= 9912 fps=427 q=-0.0 size=N/A time=00:06:53.41 bitrate=N/A speed=17.8x    frame=10165 fps=428 q=-0.0 size=N/A time=00:07:03.96 bitrate=N/A speed=17.8x    frame=10423 fps=429 q=-0.0 size=N/A time=00:07:14.72 bitrate=N/A speed=17.9x    frame=10694 fps=431 q=-0.0 size=N/A time=00:07:26.02 bitrate=N/A speed=  18x    frame=10944 fps=432 q=-0.0 size=N/A time=00:07:36.45 bitrate=N/A speed=  18x    frame=11194 fps=433 q=-0.0 size=N/A time=00:07:46.88 bitrate=N/A speed=18.1x    frame=11427 fps=434 q=-0.0 size=N/A time=00:07:56.60 bitrate=N/A speed=18.1x    frame=11659 fps=434 q=-0.0 size=N/A time=00:08:06.27 bitrate=N/A speed=18.1x    frame=11893 fps=434 q=-0.0 size=N/A time=00:08:16.03 bitrate=N/A speed=18.1x    frame=12155 fps=436 q=-0.0 size=N/A time=00:08:26.96 bitrate=N/A speed=18.2x    frame=12371 fps=435 q=-0.0 size=N/A time=00:08:35.97 bitrate=N/A speed=18.2x    frame=12598 fps=436 q=-0.0 size=N/A time=00:08:45.44 bitrate=N/A speed=18.2x    frame=12832 fps=436 q=-0.0 size=N/A time=00:08:55.20 bitrate=N/A speed=18.2x    frame=13045 fps=435 q=-0.0 size=N/A time=00:09:04.08 bitrate=N/A speed=18.2x    frame=13299 fps=436 q=-0.0 size=N/A time=00:09:14.67 bitrate=N/A speed=18.2x    frame=13543 fps=437 q=-0.0 size=N/A time=00:09:24.85 bitrate=N/A speed=18.2x    frame=13809 fps=438 q=-0.0 size=N/A time=00:09:35.95 bitrate=N/A speed=18.3x    frame=14090 fps=440 q=-0.0 size=N/A time=00:09:47.67 bitrate=N/A speed=18.4x    frame=14381 fps=442 q=-0.0 size=N/A time=00:09:59.80 bitrate=N/A speed=18.4x    frame=14649 fps=443 q=-0.0 size=N/A time=00:10:10.98 bitrate=N/A speed=18.5x    frame=14926 fps=445 q=-0.0 size=N/A time=00:10:22.53 bitrate=N/A speed=18.5x    frame=15194 fps=446 q=-0.0 size=N/A time=00:10:33.71 bitrate=N/A speed=18.6x    frame=15477 fps=447 q=-0.0 size=N/A time=00:10:45.51 bitrate=N/A speed=18.7x    frame=15756 fps=449 q=-0.0 size=N/A time=00:10:57.15 bitrate=N/A speed=18.7x    frame=16039 fps=450 q=-0.0 size=N/A time=00:11:08.95 bitrate=N/A speed=18.8x    frame=16311 fps=451 q=-0.0 size=N/A time=00:11:20.30 bitrate=N/A speed=18.8x    frame=16591 fps=452 q=-0.0 size=N/A time=00:11:31.98 bitrate=N/A speed=18.9x    frame=16872 fps=454 q=-0.0 size=N/A time=00:11:43.70 bitrate=N/A speed=18.9x    frame=17140 fps=455 q=-0.0 size=N/A time=00:11:54.88 bitrate=N/A speed=  19x    frame=17399 fps=455 q=-0.0 size=N/A time=00:12:05.68 bitrate=N/A speed=  19x    frame=17678 fps=456 q=-0.0 size=N/A time=00:12:17.31 bitrate=N/A speed=  19x    frame=17948 fps=457 q=-0.0 size=N/A time=00:12:28.58 bitrate=N/A speed=19.1x    frame=18233 fps=458 q=-0.0 size=N/A time=00:12:40.46 bitrate=N/A speed=19.1x    frame=18495 fps=459 q=-0.0 size=N/A time=00:12:51.43 bitrate=N/A speed=19.2x    frame=18775 fps=460 q=-0.0 size=N/A time=00:13:03.07 bitrate=N/A speed=19.2x    frame=19060 fps=461 q=-0.0 size=N/A time=00:13:14.96 bitrate=N/A speed=19.2x    frame=19341 fps=462 q=-0.0 size=N/A time=00:13:26.68 bitrate=N/A speed=19.3x    frame=19627 fps=463 q=-0.0 size=N/A time=00:13:38.60 bitrate=N/A speed=19.3x    frame=19883 fps=464 q=-0.0 size=N/A time=00:13:49.28 bitrate=N/A speed=19.3x    frame=20155 fps=465 q=-0.0 size=N/A time=00:14:00.63 bitrate=N/A speed=19.4x    frame=20427 fps=465 q=-0.0 size=N/A time=00:14:11.97 bitrate=N/A speed=19.4x    frame=20692 fps=466 q=-0.0 size=N/A time=00:14:23.02 bitrate=N/A speed=19.4x    frame=20972 fps=467 q=-0.0 size=N/A time=00:14:34.70 bitrate=N/A speed=19.5x    frame=21225 fps=467 q=-0.0 size=N/A time=00:14:45.25 bitrate=N/A speed=19.5x    frame=21499 fps=468 q=-0.0 size=N/A time=00:14:56.68 bitrate=N/A speed=19.5x    frame=21763 fps=468 q=-0.0 size=N/A time=00:15:07.69 bitrate=N/A speed=19.5x    frame=22027 fps=469 q=-0.0 size=N/A time=00:15:18.70 bitrate=N/A speed=19.6x    frame=22291 fps=469 q=-0.0 size=N/A time=00:15:29.72 bitrate=N/A speed=19.6x    frame=22554 fps=470 q=-0.0 size=N/A time=00:15:40.68 bitrate=N/A speed=19.6x    frame=22828 fps=470 q=-0.0 size=N/A time=00:15:52.11 bitrate=N/A speed=19.6x    frame=23104 fps=471 q=-0.0 size=N/A time=00:16:03.62 bitrate=N/A speed=19.6x    frame=23373 fps=472 q=-0.0 size=N/A time=00:16:14.84 bitrate=N/A speed=19.7x    frame=23650 fps=472 q=-0.0 size=N/A time=00:16:26.40 bitrate=N/A speed=19.7x    frame=23933 fps=473 q=-0.0 size=N/A time=00:16:38.20 bitrate=N/A speed=19.7x    frame=24201 fps=474 q=-0.0 size=N/A time=00:16:49.38 bitrate=N/A speed=19.8x    frame=24474 fps=474 q=-0.0 size=N/A time=00:17:00.76 bitrate=N/A speed=19.8x    frame=24720 fps=474 q=-0.0 size=N/A time=00:17:11.03 bitrate=N/A speed=19.8x    frame=24966 fps=474 q=-0.0 size=N/A time=00:17:21.29 bitrate=N/A speed=19.8x    frame=25218 fps=474 q=-0.0 size=N/A time=00:17:31.80 bitrate=N/A speed=19.8x    frame=25494 fps=475 q=-0.0 size=N/A time=00:17:43.31 bitrate=N/A speed=19.8x    frame=25777 fps=476 q=-0.0 size=N/A time=00:17:55.11 bitrate=N/A speed=19.8x    frame=26063 fps=476 q=-0.0 size=N/A time=00:18:07.04 bitrate=N/A speed=19.9x    frame=26334 fps=477 q=-0.0 size=N/A time=00:18:18.34 bitrate=N/A speed=19.9x    frame=26614 fps=477 q=-0.0 size=N/A time=00:18:30.02 bitrate=N/A speed=19.9x    frame=26884 fps=478 q=-0.0 size=N/A time=00:18:41.28 bitrate=N/A speed=19.9x    frame=27148 fps=478 q=-0.0 size=N/A time=00:18:52.29 bitrate=N/A speed=19.9x    frame=27333 fps=477 q=-0.0 size=N/A time=00:19:00.01 bitrate=N/A speed=19.9x    frame=27569 fps=477 q=-0.0 size=N/A time=00:19:09.85 bitrate=N/A speed=19.9x    frame=27845 fps=477 q=-0.0 size=N/A time=00:19:21.36 bitrate=N/A speed=19.9x    frame=28110 fps=478 q=-0.0 size=N/A time=00:19:32.42 bitrate=N/A speed=19.9x    frame=28381 fps=478 q=-0.0 size=N/A time=00:19:43.72 bitrate=N/A speed=19.9x    frame=28640 fps=478 q=-0.0 size=N/A time=00:19:54.52 bitrate=N/A speed=19.9x    frame=28883 fps=478 q=-0.0 size=N/A time=00:20:04.66 bitrate=N/A speed=19.9x    frame=29126 fps=478 q=-0.0 size=N/A time=00:20:14.79 bitrate=N/A speed=19.9x    frame=29389 fps=478 q=-0.0 size=N/A time=00:20:25.76 bitrate=N/A speed=  20x    frame=29673 fps=479 q=-0.0 size=N/A time=00:20:37.61 bitrate=N/A speed=  20x    frame=29938 fps=479 q=-0.0 size=N/A time=00:20:48.66 bitrate=N/A speed=  20x    frame=30185 fps=479 q=-0.0 size=N/A time=00:20:58.96 bitrate=N/A speed=  20x    frame=30432 fps=479 q=-0.0 size=N/A time=00:21:09.26 bitrate=N/A speed=  20x    frame=30661 fps=479 q=-0.0 size=N/A time=00:21:18.81 bitrate=N/A speed=  20x    frame=30889 fps=479 q=-0.0 size=N/A time=00:21:28.32 bitrate=N/A speed=  20x    frame=31119 fps=478 q=-0.0 size=N/A time=00:21:37.92 bitrate=N/A speed=  20x    frame=31357 fps=478 q=-0.0 size=N/A time=00:21:47.84 bitrate=N/A speed=  20x    frame=31602 fps=478 q=-0.0 size=N/A time=00:21:58.06 bitrate=N/A speed=19.9x    frame=31841 fps=478 q=-0.0 size=N/A time=00:22:08.03 bitrate=N/A speed=19.9x    frame=32110 fps=479 q=-0.0 size=N/A time=00:22:19.25 bitrate=N/A speed=  20x    frame=32337 fps=478 q=-0.0 size=N/A time=00:22:28.72 bitrate=N/A speed=19.9x    frame=32558 fps=478 q=-0.0 size=N/A time=00:22:37.93 bitrate=N/A speed=19.9x    frame=32718 fps=477 q=-0.0 size=N/A time=00:22:44.61 bitrate=N/A speed=19.9x    frame=32899 fps=476 q=-0.0 size=N/A time=00:22:52.16 bitrate=N/A speed=19.8x    frame=33112 fps=475 q=-0.0 size=N/A time=00:23:01.04 bitrate=N/A speed=19.8x    frame=33293 fps=474 q=-0.0 size=N/A time=00:23:08.59 bitrate=N/A speed=19.8x    frame=33470 fps=473 q=-0.0 size=N/A time=00:23:15.97 bitrate=N/A speed=19.7x    frame=33693 fps=473 q=-0.0 size=N/A time=00:23:25.27 bitrate=N/A speed=19.7x    frame=33931 fps=473 q=-0.0 size=N/A time=00:23:35.20 bitrate=N/A speed=19.7x    frame=34181 fps=473 q=-0.0 size=N/A time=00:23:45.63 bitrate=N/A speed=19.7x    [Parsed_psnr_10 @ 0000027d92f58dc0] PSNR y:49.178431 u:52.719267 v:52.276244 average:50.029247 min:35.242552 max:inf
[out#0/null @ 0000027d90af5880] video:14707KiB audio:267740KiB subtitle:0KiB other streams:0KiB global headers:0KiB muxing overhead: unknown
frame=34227 fps=473 q=-0.0 Lsize=N/A time=00:23:47.55 bitrate=N/A speed=19.7x    
